<?xml version="1.0" encoding="utf-8"?>
<!-- Generator: Adobe Illustrator 19.0.0, SVG Export Plug-In . SVG Version: 6.00 Build 0)  -->
<svg version="1.1" id="Layer_1" xmlns="http://www.w3.org/2000/svg" xmlns:xlink="http://www.w3.org/1999/xlink" x="0px" y="0px"
	 viewBox="0 0 300 300" style="enable-background:new 0 0 300 300;" xml:space="preserve">
<style type="text/css">
	.st0{fill:#FFFFFF;}
</style>
<g id="XMLID_4_">
	<path id="XMLID_2_" class="st0" d="M114.4,170.5h-1.9H99.3H36.4h-2.3c-2.3,0.3-4.6,1.3-6.4,3.1c-4.1,4.1-4.1,10.9,0,15l20.6,20.6
		c4.1,4.1,4.2,10.9,0,15l-37.3,37.3l-4.4,4.4c-8.3,8.3-9.7,20.3-1.4,28.6c8.3,8.3,20.3,6.9,28.6-1.4l4.3-4.3l37.3-37.3
		c4.1-4.2,10.9-4.2,15,0l20.5,20.5c4.1,4.2,10.9,4.2,15,0c2.1-2.1,3.1-4.8,3.1-7.5h0v-63.9v-13.3v-1.8c-0.2-3.8-1.8-7.5-4.6-10.4
		C121.9,172.3,118.2,170.7,114.4,170.5z"/>
	<path id="XMLID_1_" class="st0" d="M185.6,129.2h1.9h13.2h62.9h2.3c2.3-0.2,4.6-1.3,6.4-3c4.1-4.2,4.2-10.9,0-15l-20.6-20.6
		c-4.1-4.1-4.2-10.9,0-15l37.3-37.3l4.3-4.4c8.3-8.3,9.7-20.3,1.4-28.6c-8.3-8.3-20.3-6.9-28.6,1.4l-4.4,4.4l-37.3,37.3
		c-4.2,4.2-10.9,4.2-15,0l-20.5-20.5c-4.2-4.2-10.9-4.1-15,0c-2.1,2.1-3.1,4.8-3.1,7.5l-0.1,0v63.9v13.3v1.8
		c0.2,3.8,1.8,7.5,4.6,10.4C178.1,127.4,181.8,129,185.6,129.2z"/>
</g>
</svg>
