<?xml version="1.0" encoding="utf-8"?>
<!-- Generator: Adobe Illustrator 19.0.0, SVG Export Plug-In . SVG Version: 6.00 Build 0)  -->
<svg version="1.1" id="Layer_1" xmlns="http://www.w3.org/2000/svg" xmlns:xlink="http://www.w3.org/1999/xlink" x="0px" y="0px"
	 viewBox="0 0 300 300" style="enable-background:new 0 0 300 300;" xml:space="preserve">
<style type="text/css">
	.st0{fill:#FFFFFF;}
</style>
<path id="XMLID_2_" class="st0" d="M174.3,29l23.9,23.9c4.8,4.8,4.8,12.6,0,17.4L70.2,198.1c-4.8,4.8-12.6,4.8-17.4,0L29,174.3
	c-4.8-4.8-12.6-4.8-17.4,0c-2.4,2.4-3.6,5.6-3.6,8.7H7.9l0,45.4v28.7l0,15.4v2.1c0.2,4.4,2,8.7,5.4,12c3.3,3.3,7.6,5.1,11.9,5.4h2.2
	h15.3h28.7h44.2l2.6,0c2.7-0.3,5.3-1.4,7.4-3.5c4.8-4.8,4.8-12.6,0-17.4l-23.9-23.9c-4.8-4.8-4.8-12.6,0-17.4l128.1-127.8
	c4.8-4.8,12.6-4.8,17.4,0l23.8,23.8c4.8,4.8,12.6,4.8,17.4,0c2.4-2.4,3.6-5.5,3.6-8.7h0.1V71.5l0-28.7l0-15.4v-2
	c-0.2-4.4-2-8.7-5.4-12c-3.3-3.3-7.6-5.1-11.9-5.4h-2.3h-15.3h-28.7h-44.2h-2.6c-2.7,0.3-5.3,1.5-7.4,3.5
	C169.5,16.4,169.5,24.1,174.3,29z"/>
</svg>
